<?xml version="1.0" encoding="UTF-8" standalone="no"?>
<!DOCTYPE svg PUBLIC "-//W3C//DTD SVG 20010904//EN"
              "http://www.w3.org/TR/2001/REC-SVG-20010904/DTD/svg10.dtd">

<svg xmlns="http://www.w3.org/2000/svg"
     width="8.70833in" height="0.75in"
     viewBox="0 0 627 54">
  <path id="Selection"
        fill="none" stroke="black" stroke-width="1"
        d="M 5.00,0.00
           C 5.00,0.00 32.00,0.00 32.00,0.00
             31.41,6.94 32.61,11.50 35.00,18.00
             35.00,18.00 39.00,2.00 39.00,2.00
             39.00,2.00 37.00,0.00 37.00,0.00
             37.00,0.00 66.00,0.00 66.00,0.00
             66.00,0.00 65.00,3.00 65.00,3.00
             65.00,3.00 78.00,0.00 78.00,0.00
             75.94,5.76 65.34,6.73 60.55,14.00
             57.81,18.16 59.50,21.30 62.05,25.00
             65.79,30.40 75.27,37.95 82.00,38.00
             71.99,35.06 59.62,22.80 67.65,12.09
             71.54,6.91 81.76,3.96 88.00,3.00
             85.61,10.03 78.66,7.77 74.78,14.09
             70.28,21.42 83.57,30.95 90.00,31.00
             76.92,25.87 75.80,12.52 91.00,10.00
             89.65,14.35 87.48,15.60 87.91,18.02
             88.45,21.08 92.44,23.44 95.00,24.67
             95.00,24.67 114.69,31.58 114.69,31.58
             116.57,33.23 116.63,34.74 117.00,37.00
             117.00,37.00 109.00,38.00 109.00,38.00
             113.71,38.00 129.18,36.77 123.00,46.00
             129.32,46.22 131.92,47.37 133.00,54.00
             111.31,54.00 97.80,56.04 77.00,47.80
             72.03,45.83 66.15,43.02 62.01,39.62
             57.67,36.06 54.13,30.65 51.00,26.00
             53.26,32.11 56.21,35.52 61.00,39.90
             65.05,43.60 67.32,43.58 69.00,49.00
             69.00,49.00 46.00,49.00 46.00,49.00
             46.85,42.88 49.98,40.49 47.00,30.00
             46.39,33.95 43.34,46.73 39.73,48.40
             37.81,49.28 30.48,49.00 28.00,49.00
             28.00,49.00 22.00,29.00 22.00,29.00
             22.00,29.00 21.30,39.00 21.30,39.00
             21.30,39.00 23.00,49.00 23.00,49.00
             23.00,49.00 0.00,49.00 0.00,49.00
             0.00,49.00 8.00,3.00 8.00,3.00
             8.00,3.00 5.00,0.00 5.00,0.00 Z
           M 141.00,0.00
           C 142.46,0.05 144.25,-0.06 145.61,0.57
             149.07,2.18 151.34,9.50 152.00,13.00
             152.00,13.00 146.00,13.00 146.00,13.00
             146.00,13.00 146.00,10.00 146.00,10.00
             146.00,10.00 142.00,10.00 142.00,10.00
             142.00,10.00 142.00,13.00 142.00,13.00
             142.00,13.00 137.00,13.00 137.00,13.00
             137.00,13.00 141.00,0.00 141.00,0.00 Z
           M 247.00,7.00
           C 250.02,7.60 250.24,7.33 252.94,7.53
             254.57,7.65 257.12,8.27 255.83,10.55
             253.65,14.40 242.45,13.30 242.45,6.01
             242.45,0.60 248.72,-0.54 252.94,0.15
             254.43,0.39 257.15,1.41 255.83,3.45
             254.68,5.24 252.22,3.98 247.00,7.00 Z
           M 366.00,0.00
           C 366.00,0.00 371.00,0.00 371.00,0.00
             371.00,0.00 373.00,4.00 373.00,4.00
             373.00,4.00 373.00,0.00 373.00,0.00
             373.00,0.00 379.00,0.00 379.00,0.00
             379.00,0.00 380.00,3.00 380.00,3.00
             382.32,0.17 382.37,0.31 386.00,0.00
             386.00,0.00 381.30,12.01 381.30,12.01
             381.30,12.01 377.00,13.00 377.00,13.00
             377.00,13.00 377.00,9.00 377.00,9.00
             377.00,9.00 375.00,9.00 375.00,9.00
             375.00,9.00 375.00,13.00 375.00,13.00
             375.00,13.00 369.00,13.00 369.00,13.00
             369.00,13.00 366.00,0.00 366.00,0.00 Z
           M 193.00,2.00
           C 193.00,2.00 204.00,1.00 204.00,1.00
             204.00,1.00 204.00,13.00 204.00,13.00
             204.00,13.00 193.00,13.00 193.00,13.00
             193.00,13.00 193.00,2.00 193.00,2.00 Z
           M 321.00,1.00
           C 321.00,1.00 332.00,1.00 332.00,1.00
             332.00,1.00 332.00,6.00 332.00,6.00
             332.00,6.00 328.00,5.00 328.00,5.00
             328.00,5.00 329.00,13.00 329.00,13.00
             329.00,13.00 324.00,13.00 324.00,13.00
             324.00,13.00 324.00,6.00 324.00,6.00
             324.00,6.00 321.00,6.00 321.00,6.00
             321.00,6.00 321.00,1.00 321.00,1.00 Z
           M 65.00,3.00
           C 65.00,3.00 64.00,3.00 64.00,3.00
             64.00,3.00 65.00,4.00 65.00,4.00
             65.00,4.00 65.00,3.00 65.00,3.00 Z
           M 158.00,2.00
           C 158.00,2.00 162.00,2.00 162.00,2.00
             162.00,2.00 162.00,9.00 162.00,9.00
             162.00,9.00 169.00,8.00 169.00,8.00
             169.00,8.00 169.00,13.00 169.00,13.00
             169.00,13.00 158.00,13.00 158.00,13.00
             158.00,13.00 158.00,2.00 158.00,2.00 Z
           M 176.00,2.00
           C 176.00,2.00 180.00,2.00 180.00,2.00
             180.00,2.00 179.00,9.00 179.00,9.00
             179.00,9.00 187.00,8.00 187.00,8.00
             187.00,8.00 187.00,13.00 187.00,13.00
             187.00,13.00 175.00,13.00 175.00,13.00
             175.00,13.00 176.00,2.00 176.00,2.00 Z
           M 212.00,2.00
           C 212.00,2.00 218.00,4.00 218.00,4.00
             218.00,4.00 223.00,2.00 223.00,2.00
             223.00,2.00 223.00,13.00 223.00,13.00
             223.00,13.00 218.00,13.00 218.00,13.00
             218.00,13.00 216.00,9.00 216.00,9.00
             216.00,9.00 216.00,13.00 216.00,13.00
             216.00,13.00 211.00,13.00 211.00,13.00
             211.00,13.00 212.00,2.00 212.00,2.00 Z
           M 266.23,3.10
           C 268.73,2.13 271.24,1.55 273.63,3.10
             276.59,5.11 276.37,9.92 273.63,11.82
             268.72,15.13 258.99,9.78 266.23,3.10 Z
           M 283.00,2.00
           C 283.00,2.00 287.00,2.00 287.00,2.00
             287.00,2.00 288.00,9.00 288.00,9.00
             288.00,9.00 290.00,9.00 290.00,9.00
             290.00,9.00 291.00,2.00 291.00,2.00
             291.00,2.00 295.00,2.00 295.00,2.00
             294.74,3.98 294.16,9.88 293.01,11.26
             290.70,14.04 285.03,12.96 283.60,9.77
             282.83,8.07 283.00,3.98 283.00,2.00 Z
           M 303.00,2.00
           C 303.00,2.00 309.00,4.00 309.00,4.00
             309.00,4.00 315.00,2.00 315.00,2.00
             315.00,2.00 315.00,13.00 315.00,13.00
             315.00,13.00 309.00,13.00 309.00,13.00
             309.00,13.00 307.00,9.00 307.00,9.00
             307.00,9.00 307.00,13.00 307.00,13.00
             307.00,13.00 302.00,13.00 302.00,13.00
             302.00,13.00 303.00,2.00 303.00,2.00 Z
           M 337.00,2.00
           C 337.00,2.00 343.00,4.00 343.00,4.00
             343.00,4.00 349.00,2.00 349.00,2.00
             349.00,2.00 345.00,13.00 345.00,13.00
             345.00,13.00 340.00,13.00 340.00,13.00
             340.00,13.00 337.00,2.00 337.00,2.00 Z
           M 392.00,2.00
           C 399.43,2.24 400.71,6.11 402.00,13.00
             402.00,13.00 394.00,10.00 394.00,10.00
             392.73,13.06 392.21,12.72 389.00,13.00
             389.00,13.00 392.00,2.00 392.00,2.00 Z
           M 408.00,2.00
           C 410.58,2.00 416.26,1.45 417.97,3.58
             419.10,5.01 418.92,10.96 419.00,13.00
             419.00,13.00 414.00,10.00 414.00,10.00
             411.68,12.83 411.63,12.69 408.00,13.00
             408.00,13.00 408.00,2.00 408.00,2.00 Z
           M 63.00,4.00
           C 63.00,4.00 62.00,4.00 62.00,4.00
             62.00,4.00 63.00,5.00 63.00,5.00
             63.00,5.00 63.00,4.00 63.00,4.00 Z
           M 272.00,7.00
           C 272.00,7.00 268.00,6.00 268.00,6.00
             268.00,6.00 268.00,9.00 268.00,9.00
             268.00,9.00 272.00,7.00 272.00,7.00 Z
           M 58.00,7.00
           C 58.00,7.00 57.00,7.00 57.00,7.00
             57.00,7.00 58.00,8.00 58.00,8.00
             58.00,8.00 58.00,7.00 58.00,7.00 Z
           M 57.00,8.00
           C 57.00,8.00 56.00,8.00 56.00,8.00
             56.00,8.00 57.00,9.00 57.00,9.00
             57.00,9.00 57.00,8.00 57.00,8.00 Z
           M 216.00,8.00
           C 216.00,8.00 215.00,8.00 215.00,8.00
             215.00,8.00 216.00,9.00 216.00,9.00
             216.00,9.00 216.00,8.00 216.00,8.00 Z
           M 307.00,8.00
           C 307.00,8.00 306.00,8.00 306.00,8.00
             306.00,8.00 307.00,9.00 307.00,9.00
             307.00,9.00 307.00,8.00 307.00,8.00 Z
           M 56.00,9.00
           C 56.00,9.00 55.00,9.00 55.00,9.00
             55.00,9.00 56.00,10.00 56.00,10.00
             56.00,10.00 56.00,9.00 56.00,9.00 Z
           M 413.00,9.00
           C 413.00,9.00 412.00,9.00 412.00,9.00
             412.00,9.00 413.00,10.00 413.00,10.00
             413.00,10.00 413.00,9.00 413.00,9.00 Z
           M 55.00,10.00
           C 55.00,10.00 54.00,10.00 54.00,10.00
             54.00,10.00 55.00,11.00 55.00,11.00
             55.00,11.00 55.00,10.00 55.00,10.00 Z
           M 54.00,11.00
           C 54.00,11.00 53.00,11.00 53.00,11.00
             53.00,11.00 54.00,12.00 54.00,12.00
             54.00,12.00 54.00,11.00 54.00,11.00 Z
           M 51.00,16.00
           C 49.05,19.82 48.38,22.37 51.00,26.00
             51.00,26.00 51.00,16.00 51.00,16.00 Z
           M 429.00,47.00
           C 419.21,48.32 408.19,51.45 399.02,45.92
             390.79,40.96 390.62,28.78 400.00,23.36
             408.69,18.35 418.70,20.77 428.00,22.00
             427.84,23.45 427.80,24.57 427.30,26.00
             423.29,37.46 415.46,26.27 408.11,31.74
             403.79,34.96 406.99,38.43 411.00,39.39
             415.74,40.53 419.66,37.13 424.00,36.00
             424.00,36.00 429.00,47.00 429.00,47.00 Z
           M 138.00,21.00
           C 138.00,21.00 154.00,21.00 154.00,21.00
             154.00,21.00 156.00,29.00 156.00,29.00
             156.00,29.00 158.00,29.00 158.00,29.00
             158.00,29.00 160.00,21.00 160.00,21.00
             160.00,21.00 177.00,21.00 177.00,21.00
             174.32,33.59 174.32,36.41 177.00,49.00
             177.00,49.00 163.00,49.00 163.00,49.00
             164.51,42.55 166.03,42.15 164.00,35.00
             162.52,40.19 160.48,46.20 155.00,48.00
             155.00,48.00 148.00,34.00 148.00,34.00
             148.00,34.00 150.00,49.00 150.00,49.00
             150.00,49.00 138.00,49.00 138.00,49.00
             139.41,38.30 139.41,31.70 138.00,21.00 Z
           M 179.00,25.00
           C 179.00,25.00 208.00,24.00 208.00,24.00
             208.00,24.00 208.00,33.00 208.00,33.00
             208.00,33.00 202.00,32.00 202.00,32.00
             202.00,32.00 202.00,41.00 202.00,41.00
             202.00,41.00 190.00,40.00 190.00,40.00
             190.00,40.00 190.00,42.00 190.00,42.00
             190.00,42.00 208.00,41.00 208.00,41.00
             208.00,41.00 208.00,50.00 208.00,50.00
             208.00,50.00 179.00,49.00 179.00,49.00
             181.72,36.22 181.98,37.70 179.00,25.00 Z
           M 530.00,25.00
           C 530.00,25.00 559.00,24.00 559.00,24.00
             559.00,24.00 559.00,33.00 559.00,33.00
             559.00,33.00 553.00,32.00 553.00,32.00
             553.00,32.00 553.00,41.00 553.00,41.00
             553.00,41.00 541.00,40.00 541.00,40.00
             541.00,40.00 541.00,42.00 541.00,42.00
             541.00,42.00 559.00,41.00 559.00,41.00
             559.00,41.00 559.00,50.00 559.00,50.00
             559.00,50.00 530.00,49.00 530.00,49.00
             532.72,36.22 532.98,37.70 530.00,25.00 Z
           M 210.00,25.00
           C 210.00,25.00 225.00,25.00 225.00,25.00
             225.00,25.00 228.00,31.00 228.00,31.00
             228.00,31.00 229.00,25.00 229.00,25.00
             229.00,25.00 244.00,25.00 244.00,25.00
             242.89,33.43 242.89,40.57 244.00,49.00
             244.00,49.00 232.00,49.00 232.00,49.00
             233.08,43.92 234.34,43.29 233.00,38.00
             233.00,38.00 231.18,41.98 231.18,41.98
             226.06,51.22 222.89,43.07 220.00,38.00
             220.00,38.00 221.00,49.00 221.00,49.00
             221.00,49.00 210.00,49.00 210.00,49.00
             212.72,36.22 212.98,37.70 210.00,25.00 Z
           M 254.01,25.61
           C 260.05,24.46 269.09,24.30 273.57,29.27
             277.41,33.52 279.34,48.79 262.00,49.00
             257.07,49.05 252.10,49.33 248.28,45.61
             242.14,39.65 244.46,29.03 254.01,25.61 Z
           M 277.00,25.00
           C 282.02,25.00 297.14,24.36 300.96,26.01
             306.95,28.59 307.66,35.60 302.00,39.00
             302.00,39.00 306.00,49.00 306.00,49.00
             306.00,49.00 293.00,49.00 293.00,49.00
             292.12,44.39 291.67,42.53 287.00,41.00
             287.00,41.00 289.00,49.00 289.00,49.00
             289.00,49.00 277.00,49.00 277.00,49.00
             278.39,38.43 278.39,35.57 277.00,25.00 Z
           M 307.00,25.00
           C 307.00,25.00 320.00,25.00 320.00,25.00
             319.05,36.75 318.38,36.72 320.00,49.00
             320.00,49.00 307.00,49.00 307.00,49.00
             309.72,36.22 309.98,37.70 307.00,25.00 Z
           M 331.00,25.00
           C 331.00,25.00 345.00,25.00 345.00,25.00
             345.00,25.00 354.00,46.00 354.00,46.00
             354.00,46.00 356.00,46.00 356.00,46.00
             358.17,37.06 356.97,33.38 355.00,25.00
             355.00,25.00 368.00,25.00 368.00,25.00
             368.00,25.00 367.00,41.00 367.00,41.00
             367.00,41.00 383.00,40.00 383.00,40.00
             383.00,40.00 383.00,50.00 383.00,50.00
             383.00,50.00 343.00,49.00 343.00,49.00
             343.00,49.00 343.00,45.00 343.00,45.00
             337.80,45.00 334.80,44.03 332.00,49.00
             332.00,49.00 321.00,49.00 321.00,49.00
             321.00,49.00 331.00,25.00 331.00,25.00 Z
           M 438.00,25.53
           C 444.15,24.52 452.07,24.35 456.72,29.22
             462.49,35.25 461.52,48.80 446.00,49.00
             441.55,49.05 436.83,49.35 433.09,46.49
             424.25,39.71 428.07,28.73 438.00,25.53 Z
           M 460.00,25.00
           C 460.00,25.00 472.00,25.00 472.00,25.00
             472.00,25.00 471.00,41.00 471.00,41.00
             471.00,41.00 488.00,40.00 488.00,40.00
             488.00,40.00 489.00,46.00 489.00,46.00
             489.00,46.00 488.00,25.00 488.00,25.00
             488.00,25.00 501.00,25.00 501.00,25.00
             499.40,32.52 497.09,38.59 501.00,46.00
             501.00,46.00 505.00,38.00 505.00,38.00
             500.75,33.36 502.10,28.22 508.02,25.89
             511.55,24.50 524.47,25.00 529.00,25.00
             528.47,29.93 527.85,30.96 525.00,35.00
             530.21,37.94 530.24,44.93 525.66,47.71
             523.12,49.25 517.97,49.03 515.00,49.00
             515.00,49.00 505.00,48.18 505.00,48.18
             505.00,48.18 486.00,49.66 486.00,49.66
             486.00,49.66 479.00,49.02 479.00,49.02
             479.00,49.02 460.00,49.02 460.00,49.02
             461.39,38.43 461.39,35.57 460.00,25.00 Z
           M 561.00,25.00
           C 561.00,25.00 573.00,25.00 573.00,25.00
             572.78,27.72 571.85,32.66 572.16,35.00
             572.92,40.75 578.18,42.52 580.13,37.86
             581.74,34.56 580.47,28.55 580.13,25.00
             580.13,25.00 592.00,25.00 592.00,25.00
             592.00,25.00 590.05,34.00 590.05,34.00
             589.82,37.39 590.53,41.79 588.69,44.78
             584.79,51.08 567.81,50.39 564.17,43.89
             562.49,40.89 563.19,36.38 562.95,33.01
             562.95,33.01 561.00,25.00 561.00,25.00 Z
           M 595.00,25.00
           C 595.00,25.00 609.00,25.00 609.00,25.00
             609.00,25.00 612.00,31.00 612.00,31.00
             612.00,31.00 614.00,25.00 614.00,25.00
             614.00,25.00 627.00,25.00 627.00,25.00
             627.00,25.00 627.00,49.00 627.00,49.00
             627.00,49.00 617.00,49.00 617.00,49.00
             617.00,49.00 617.00,39.00 617.00,39.00
             617.00,39.00 615.18,42.94 615.18,42.94
             610.37,51.25 606.65,42.41 604.00,38.00
             604.00,38.00 606.00,49.00 606.00,49.00
             606.00,49.00 595.00,49.00 595.00,49.00
             596.18,40.02 596.18,33.98 595.00,25.00 Z
           M 199.00,32.00
           C 199.00,32.00 190.00,33.00 190.00,33.00
             190.00,33.00 199.00,32.00 199.00,32.00 Z
           M 296.00,32.00
           C 296.00,32.00 287.00,32.00 287.00,32.00
             287.00,32.00 287.00,34.00 287.00,34.00
             287.00,34.00 296.00,34.00 296.00,34.00
             296.00,34.00 296.00,32.00 296.00,32.00 Z
           M 521.00,32.00
           C 521.00,32.00 513.00,33.00 513.00,33.00
             513.00,33.00 521.00,32.00 521.00,32.00 Z
           M 550.00,32.00
           C 550.00,32.00 541.00,33.00 541.00,33.00
             541.00,33.00 550.00,32.00 550.00,32.00 Z
           M 259.06,33.47
           C 251.70,36.72 257.68,41.86 261.98,40.93
             266.91,39.88 267.78,33.05 259.06,33.47 Z
           M 442.06,33.64
           C 434.70,38.04 441.87,42.21 445.94,40.96
             451.09,39.38 450.08,32.75 442.06,33.64 Z
           M 523.00,33.00
           C 523.00,33.00 522.00,33.00 522.00,33.00
             522.00,33.00 523.00,34.00 523.00,34.00
             523.00,34.00 523.00,33.00 523.00,33.00 Z
           M 338.00,35.00
           C 338.00,35.00 336.00,39.00 336.00,39.00
             336.00,39.00 339.00,39.00 339.00,39.00
             339.00,39.00 338.00,35.00 338.00,35.00 Z
           M 108.00,36.00
           C 108.00,36.00 102.00,37.00 102.00,37.00
             102.00,37.00 108.00,36.00 108.00,36.00 Z
           M 519.00,41.00
           C 519.00,41.00 508.00,41.00 508.00,41.00
             512.02,41.98 515.06,42.56 519.00,41.00 Z
           M 102.00,44.00
           C 102.00,44.00 97.00,45.00 97.00,45.00
             97.00,45.00 102.00,44.00 102.00,44.00 Z
           M 110.00,45.00
           C 110.00,45.00 104.00,46.00 104.00,46.00
             104.00,46.00 110.00,45.00 110.00,45.00 Z
           M 122.00,46.00
           C 122.00,46.00 114.00,47.00 114.00,47.00
             114.00,47.00 122.00,46.00 122.00,46.00 Z" />
</svg>
